<?xml version="1.0" encoding="utf-8"?>
<!-- Generator: Adobe Illustrator 15.1.0, SVG Export Plug-In . SVG Version: 6.00 Build 0)  -->
<!DOCTYPE svg PUBLIC "-//W3C//DTD SVG 1.1//EN" "http://www.w3.org/Graphics/SVG/1.1/DTD/svg11.dtd">
<svg version="1.1" id="Layer_1" xmlns="http://www.w3.org/2000/svg" xmlns:xlink="http://www.w3.org/1999/xlink" x="0px" y="0px"
	 width="842px" height="842px" viewBox="0 0 842 842" enable-background="new 0 0 842 842" xml:space="preserve">
<title>panda</title>
<desc>Created with Sketch.</desc>
<g id="Page-1">
	<g id="panda">
		<g id="Group-4" transform="translate(75.000000, 148.000000)">
			<g id="Group-Copy-2">
				
					<ellipse id="Oval" transform="matrix(-0.7584 -0.6518 0.6518 -0.7584 336.802 790.9138)" fill="none" cx="314.977" cy="333.039" rx="4.646" ry="6.363"/>
				<path id="Shape" fill="none" d="M345.578,391.834c17.742,0,33.986-5.286,46.522-14.009
					c15.412-10.725,25.208-26.654,25.208-44.421c0-7.409-1.718-14.493-4.819-21.02c-2.306,0.762-4.763,1.189-7.324,1.189
					l-23.321-23.316c0-2.354,0.356-4.621,1.004-6.762c-10.869-5.404-23.628-8.522-37.269-8.522c-15.013,0-28.957,3.782-40.489,10.23
					c0.362,1.631,0.565,3.316,0.565,5.056l-23.323,23.316c-1.388,0-2.74-0.145-4.06-0.377c-2.86,6.3-4.424,13.105-4.424,20.206
					c0,17.768,9.795,33.696,25.207,44.422C311.591,386.548,327.838,391.834,345.578,391.834z M367.73,318.449
					c5.881-5.053,16.263-2.62,23.189,5.438c6.927,8.056,7.774,18.686,1.893,23.739c-5.883,5.053-16.264,2.619-23.19-5.438
					C362.698,334.132,361.849,323.503,367.73,318.449z M345.402,339.807c4.133,0,7.482,2.06,7.482,4.599s-3.352,4.6-7.482,4.6
					c-4.134,0-7.482-2.061-7.482-4.6S341.269,339.807,345.402,339.807z M333.19,351.496c0.893,15.907,24.831,15.878,25.721,0
					c0.167-2.988,4.833-2.999,4.664,0c-1.228,21.896-33.823,21.896-35.051,0C328.356,348.493,333.022,348.513,333.19,351.496z
					 M301.211,323.887c6.927-8.058,17.31-10.49,23.191-5.438c5.88,5.054,5.034,15.683-1.892,23.739
					c-6.928,8.057-17.311,10.49-23.191,5.438C293.435,342.572,294.284,331.945,301.211,323.887z"/>
				
					<ellipse id="Oval_1_" transform="matrix(-0.6518 -0.7584 0.7584 -0.6518 370.3989 836.1464)" fill="none" cx="377.157" cy="333.039" rx="6.365" ry="4.646"/>
				<path id="Shape_1_" fill="none" d="M390.667,442.073c-8.553,7.256-30.839-4.62-19.178-18.868
					c11.662-14.248-0.259-21.46-0.259-21.46h-21.764h-7.775h-21.768c0,0-11.921,7.243-0.259,21.495
					c11.662,14.248-10.625,25.918-19.177,18.663c-3.385-2.871-9.401-7.656-13.898-14.853c-0.513,2.06-0.931,4.213-1.237,6.316
					l31.416,39.591c4.7,0.492,9.449,0.643,14.054,0.744c11.144,0.247,22.362,0.318,33.501-0.106
					c3.556-0.137,7.269-0.301,10.971-0.703l30.44-38.333c-0.3-2.441-0.744-4.843-1.321-7.204
					C399.938,434.411,394.016,439.233,390.667,442.073z"/>
				<ellipse id="Oval_2_" cx="345.402" cy="344.406" rx="7.482" ry="4.599"/>
				<path id="Shape_2_" d="M363.575,351.496c0.169-2.999-4.497-2.988-4.664,0c-0.89,15.878-24.828,15.907-25.721,0
					c-0.167-2.983-4.832-3.003-4.663,0C329.752,373.396,362.348,373.394,363.575,351.496z"/>
				<path id="Shape_3_" d="M322.509,342.188c6.927-8.056,7.775-18.686,1.892-23.739c-5.883-5.053-16.263-2.62-23.19,5.438
					c-6.927,8.056-7.775,18.686-1.892,23.739C305.2,352.679,315.582,350.245,322.509,342.188z M311.445,330.01
					c2.292-2.666,5.727-3.47,7.672-1.799c1.945,1.672,1.664,5.188-0.625,7.854c-2.292,2.666-5.727,3.47-7.673,1.799
					C308.874,336.191,309.154,332.675,311.445,330.01z"/>
				<path id="Shape_4_" d="M392.815,347.626c5.879-5.054,5.033-15.683-1.893-23.739c-6.926-8.058-17.31-10.49-23.19-5.438
					c-5.881,5.054-5.034,15.683,1.892,23.739C376.551,350.245,386.935,352.679,392.815,347.626z M373.015,328.211
					c1.944-1.671,5.382-0.867,7.672,1.799c2.293,2.666,2.572,6.182,0.626,7.854c-1.944,1.671-5.383,0.867-7.672-1.799
					C371.348,333.399,371.066,329.883,373.015,328.211z"/>
				<path id="Shape_5_" d="M431.923,443.286h-12.15l-11.962-11.522c-0.409-2.702-0.993-4.688-1.724-7.292
					c5.745-10.878,7.499-26.6-6.338-46.799c13.726-11.413,22.226-27.035,22.226-44.354c0-8.084-1.869-15.767-5.238-22.874
					c7.018-4.021,11.755-11.544,11.755-20.206c0-12.878-10.442-23.308-23.322-23.308c-8.88,0-16.597,4.967-20.538,12.267
					c-11.435-5.642-24.788-8.892-39.051-8.892c-15.497,0-29.919,3.842-41.977,10.417c-3.646-8.12-11.789-13.782-21.27-13.782
					c-12.881,0-23.323,10.439-23.323,23.317c0,9.843,6.11,18.244,14.736,21.664c-2.95,6.708-4.566,13.94-4.566,21.481
					c0,17.32,8.499,33.026,22.225,44.441c-3.349,4.938-5.784,9.602-7.471,13.989c-5.21,13.556-3.27,24.469,0.964,32.687
					c-0.992,3.221-1.767,5.67-2.254,8.977l-10.418,9.789h-12.15c-2.371,0-3.894,3.206-2.794,5.305l12.05,23.363
					c0.902,1.722,2.693,2.97,4.639,2.956l41.684,0.122c0.57,0.065,1.136,0.173,1.701,0.232c13.519,1.397,27.366,1.014,40.934,0.8
					c5.923-0.097,12.262-0.162,18.455-0.957l41.281-0.031c1.946,0.015,3.737-1.058,4.64-2.781l12.05-23.707
					C435.817,446.489,434.294,443.286,431.923,443.286z M273.848,333.404c0-7.099,1.567-13.904,4.424-20.206
					c1.322,0.232,2.674,0.377,4.06,0.377l23.323-23.316c0-1.738-0.205-3.427-0.565-5.056c11.532-6.448,25.477-10.231,40.489-10.231
					c13.639,0,26.4,3.118,37.269,8.523c-0.647,2.141-1.004,4.407-1.004,6.761l23.322,23.316c2.562,0,5.018-0.428,7.322-1.19
					c3.103,6.527,4.82,13.61,4.82,21.021c0,17.767-9.796,33.696-25.207,44.422c-12.537,8.722-28.782,14.008-46.523,14.008
					c-17.743,0-33.987-5.285-46.523-14.008C283.644,367.101,273.848,351.171,273.848,333.404z M375.3,472.895
					c-3.703,0.403-7.417,0.572-10.972,0.708c-11.139,0.428-22.357,0.361-33.5,0.116c-4.605-0.104-9.356-0.238-14.054-0.731
					l-31.416-39.562c0.303-2.103,0.723-4.197,1.236-6.257c4.498,7.194,10.513,12.099,13.898,14.969
					c8.553,7.256,30.838-4.652,19.178-18.9c-11.664-14.248,0.256-21.491,0.256-21.491h21.768h7.776h21.764
					c0,0,11.92,7.212,0.259,21.46c-11.663,14.248,10.625,25.884,19.177,18.632c3.349-2.841,9.271-7.544,13.754-14.6
					c0.577,2.36,1.022,4.822,1.322,7.265L375.3,472.895z"/>
			</g>
		</g>
	</g>
</g>
<g>
	<path d="M364.501,527.26c0.221,0.382,0.09,0.871-0.293,1.093l0,0c-0.382,0.221-0.872,0.089-1.093-0.293L229.668,296.922
		c-0.221-0.383-0.089-0.872,0.293-1.093l0,0c0.382-0.221,0.872-0.09,1.092,0.293L364.501,527.26z"/>
	<path d="M478.885,528.059c-0.221,0.383-0.71,0.515-1.094,0.294l0,0c-0.381-0.222-0.513-0.711-0.292-1.093l133.447-231.139
		c0.222-0.382,0.71-0.513,1.093-0.292l0,0c0.383,0.221,0.514,0.71,0.293,1.093L478.885,528.059z"/>
	<path d="M421.895,417.958c0,0.231-0.358,0.419-0.8,0.419l0,0c-0.442,0-0.8-0.188-0.8-0.419V278.262c0-0.231,0.358-0.419,0.8-0.419
		l0,0c0.441,0,0.8,0.188,0.8,0.419V417.958z"/>
</g>
<path d="M625.267,297.39c0-71.429-91.453-129.333-204.267-129.333c-112.813,0-204.267,57.904-204.267,129.333H625.267z"/>
</svg>
