<?xml version="1.0" encoding="UTF-8" standalone="no"?>
<svg width="842px" height="842px" viewBox="0 0 842 842" version="1.1" xmlns="http://www.w3.org/2000/svg" xmlns:xlink="http://www.w3.org/1999/xlink">
    <!-- Generator: Sketch 41 (35326) - http://www.bohemiancoding.com/sketch -->
    <title>panda</title>
    <desc>Created with Sketch.</desc>
    <defs></defs>
    <g id="Page-1" stroke="none" stroke-width="1" fill="none" fill-rule="evenodd">
        <g id="panda">
            <g id="Group-4" transform="translate(75.000000, 148.000000)">
                <g id="Group-Copy-2">
                    <ellipse id="Oval" transform="translate(109.348570, 124.815853) rotate(40.677112) translate(-109.348570, -124.815853) " cx="109.34857" cy="124.815853" rx="8.71216157" ry="11.9307316"></ellipse>
                    <path d="M166.729473,235.058963 C199.996777,235.058963 230.45476,225.148826 253.960477,208.792291 C282.85569,188.683374 301.223971,158.815516 301.223971,125.502248 C301.223971,111.610647 298.00219,98.3284073 292.186484,86.0907867 C287.864805,87.5202654 283.258986,88.3220563 278.456102,88.3220563 L234.726027,44.6038324 C234.726027,40.1916914 235.395131,35.9399085 236.609601,31.9263721 C216.229425,21.7917346 192.306663,15.9455332 166.729473,15.9455332 C138.581274,15.9455332 112.435804,23.0379468 90.8136601,35.1289542 C91.49193,38.1849232 91.8723111,41.3462703 91.8723111,44.608414 L48.1422363,88.326638 C45.5391466,88.326638 43.0048004,88.0563199 40.5300319,87.621062 C35.1680337,99.432588 32.2349748,112.192518 32.2349748,125.50683 C32.2349748,158.820098 50.603256,188.687956 79.4984689,208.796873 C103.004186,225.148826 133.466752,235.058963 166.729473,235.058963 Z M208.264337,97.4624731 C219.290805,87.987595 238.758983,92.5509309 251.746935,107.656672 C264.734886,122.762414 266.325154,142.692646 255.294103,152.167524 C244.263051,161.642402 224.799456,157.079066 211.811505,141.973325 C198.828136,126.867583 197.237868,106.937351 208.264337,97.4624731 Z M166.399504,137.506204 C174.149196,137.506204 180.427775,141.368545 180.427775,146.128893 C180.427775,150.88924 174.144613,154.751582 166.399504,154.751582 C158.649813,154.751582 152.371233,150.88924 152.371233,146.128893 C152.371233,141.368545 158.649813,137.506204 166.399504,137.506204 Z M143.503313,159.424877 C145.176073,189.2515 190.06104,189.19652 191.729217,159.424877 C192.040855,153.821504 200.789619,153.803177 200.473399,159.424877 C198.172781,200.481155 137.055167,200.481155 134.754548,159.424877 C134.438328,153.794014 143.187093,153.830667 143.503313,159.424877 Z M83.5405907,107.656672 C96.528542,92.5509309 115.99672,87.987595 127.023189,97.4624731 C138.049657,106.937351 136.463972,126.867583 123.47602,141.973325 C110.488069,157.079066 91.0198908,161.642402 79.9934226,152.167524 C68.9623715,142.692646 70.5526393,122.766995 83.5405907,107.656672 Z" id="Shape"></path>
                    <ellipse id="Oval" transform="translate(225.937025, 124.819681) rotate(49.322888) translate(-225.937025, -124.819681) " cx="225.937025" cy="124.819681" rx="11.9339657" ry="8.70980059"></ellipse>
                    <path d="M251.270312,329.257944 C235.23473,342.8609 193.447806,320.59402 215.312844,293.878346 C237.177881,267.162672 214.827056,253.642186 214.827056,253.642186 L174.020874,253.642186 L159.442655,253.642186 L118.627308,253.642186 C118.627308,253.642186 96.2764823,267.222234 118.14152,293.942489 C140.006557,320.658164 98.2196338,342.540184 82.1840509,328.937228 C75.8367282,323.553774 64.5582002,314.582879 56.125656,301.089883 C55.163246,304.952225 54.3795693,308.988669 53.8067063,312.933481 L112.710778,387.165577 C121.523703,388.086491 130.428287,388.370554 139.062479,388.562984 C159.95594,389.025732 180.991472,389.1586 201.875768,388.361391 C208.543894,388.104818 215.505326,387.797847 222.448426,387.041872 L279.523919,315.169332 C278.960221,310.592251 278.126133,306.088477 277.044567,301.662591 C268.653269,314.889851 257.548892,323.934052 251.270312,329.257944 Z" id="Shape"></path>
                    <ellipse id="Oval" fill="#000000" cx="166.399504" cy="146.128893" rx="14.0282707" ry="8.6226889"></ellipse>
                    <path d="M200.473399,159.424877 C200.789619,153.803177 192.040855,153.821504 191.729217,159.424877 C190.06104,189.19652 145.176073,189.2515 143.503313,159.424877 C143.191676,153.830667 134.442911,153.794014 134.759131,159.424877 C137.055167,200.485737 198.172781,200.481155 200.473399,159.424877 Z" id="Shape" fill="#000000"></path>
                    <path d="M123.47602,141.973325 C136.463972,126.867583 138.05424,106.937351 127.023189,97.4624731 C115.992137,87.987595 96.528542,92.5509309 83.5405907,107.656672 C70.5526393,122.762414 68.9623715,142.692646 79.9934226,152.167524 C91.0198908,161.642402 110.488069,157.079066 123.47602,141.973325 Z M102.729212,119.138319 C107.027976,114.139725 113.466957,112.632358 117.114949,115.766215 C120.762941,118.900072 120.235907,125.493085 115.941725,130.491678 C111.642961,135.490272 105.20398,136.997639 101.555988,133.863782 C97.9079963,130.729925 98.4350303,124.136912 102.729212,119.138319 Z" id="Shape" fill="#000000"></path>
                    <path d="M255.298685,152.167524 C266.325154,142.692646 264.739469,122.762414 251.751517,107.656672 C238.763566,92.5509309 219.295388,87.987595 208.26892,97.4624731 C197.242451,106.937351 198.828136,126.867583 211.816088,141.973325 C224.804039,157.079066 244.272217,161.642402 255.298685,152.167524 Z M218.172576,115.766215 C221.820568,112.632358 228.264132,114.139725 232.558313,119.138319 C236.857078,124.136912 237.379529,130.729925 233.731537,133.863782 C230.083545,136.997639 223.639981,135.490272 219.3458,130.491678 C215.047035,125.493085 214.520001,118.900072 218.172576,115.766215 Z" id="Shape" fill="#000000"></path>
                    <path d="M328.625157,331.530449 L305.843539,331.530449 L283.414805,309.92791 C282.64946,304.860591 281.554145,301.1357 280.183857,296.256229 C290.953682,275.858667 294.244208,246.380251 268.300386,208.508228 C294.037977,187.107282 309.972736,157.816714 309.972736,125.34189 C309.972736,110.18575 306.466814,95.781003 300.151572,82.4529466 C313.309091,74.9161117 322.19076,60.8091728 322.19076,44.5671791 C322.19076,20.4218175 302.612592,0.867281768 278.460685,0.867281768 C261.810993,0.867281768 247.342763,10.1818017 239.955121,23.8672277 C218.511711,13.2881689 193.475304,7.19455774 166.734056,7.19455774 C137.678442,7.19455774 110.634722,14.3969312 88.0272542,26.7261851 C81.1895607,11.5013205 65.9239058,0.885608418 48.1468192,0.885608418 C23.9949125,0.885608418 4.41674449,20.4584708 4.41674449,44.6038324 C4.41674449,63.0587691 15.8740057,78.8105249 32.0470757,85.2248525 C26.51551,97.8015161 23.4862101,111.363237 23.4862101,125.502248 C23.4862101,157.977072 39.4209691,187.427999 65.1585607,208.828944 C39.4759639,246.700967 42.4502689,275.950301 52.9588689,296.347862 C51.0982097,302.386494 49.645429,306.977319 48.733431,313.176309 L29.1965091,331.530449 L6.41489086,331.530449 C1.96947349,331.530449 -0.885676011,337.54159 1.17663101,341.477238 L23.7703502,385.282514 C25.461442,388.512586 28.820711,390.853816 32.4687029,390.826326 L110.625556,391.055409 C111.693373,391.179114 112.756607,391.380707 113.815258,391.490667 C139.163303,394.111378 165.125457,393.392057 190.565159,392.98887 C201.669537,392.810185 213.557591,392.686481 225.166088,391.19744 L302.571345,391.137879 C306.219337,391.165369 309.578606,389.154019 311.269698,385.923947 L333.863417,341.472657 C335.925724,337.537009 333.070575,331.530449 328.625157,331.530449 Z M32.2349748,125.502248 C32.2349748,112.192518 35.1726166,99.432588 40.5300319,87.6164803 C43.0093833,88.0517382 45.5437295,88.3220563 48.1422363,88.3220563 L91.8723111,44.6038324 C91.8723111,41.3462703 91.4873471,38.1803415 90.8136601,35.1243726 C112.435804,23.0333651 138.581274,15.9409515 166.729473,15.9409515 C192.30208,15.9409515 216.229425,21.7871529 236.609601,31.9217905 C235.395131,35.9353269 234.726027,40.1871097 234.726027,44.5992507 L278.456102,88.3174747 C283.258986,88.3174747 287.864805,87.5156837 292.186484,86.086205 C298.00219,98.3238257 301.223971,111.606065 301.223971,125.497666 C301.223971,158.810935 282.85569,188.678793 253.960477,208.78771 C230.45476,225.144245 199.996777,235.054381 166.729473,235.054381 C133.462169,235.054381 103.004186,225.144245 79.4984689,208.78771 C50.603256,188.683374 32.2349748,158.815516 32.2349748,125.502248 Z M222.457592,387.046454 C215.514492,387.802428 208.548477,388.118563 201.884934,388.375136 C181.000638,389.176927 159.965106,389.053222 139.071644,388.590474 C130.437452,388.398044 121.528286,388.146053 112.719944,387.220557 L53.8158721,313.043441 C54.3841522,309.098629 55.1724118,305.172144 56.1348218,301.309803 C64.567366,314.798217 75.845894,323.993614 82.1932167,329.377068 C98.2287996,342.980024 140.015723,320.653582 118.150685,293.937908 C96.2810652,267.222234 118.63189,253.642186 118.63189,253.642186 L159.447238,253.642186 L174.025457,253.642186 L214.831639,253.642186 C214.831639,253.642186 237.182464,267.162672 215.317427,293.878346 C193.452389,320.59402 235.239312,342.411898 251.274895,328.813523 C257.553475,323.48505 268.657852,314.669931 277.062899,301.438089 C278.144464,305.863975 278.978553,310.482291 279.54225,315.059372 L222.457592,387.046454 Z" id="Shape" fill="#000000"></path>
                </g>
                <path d="M3.99264208,406.595319 L27.2269328,406.595319 L27.2269328,417.367011 L27.5636616,417.367011 C28.5738532,415.908337 29.8926947,414.421634 31.5202256,412.906857 C33.1477565,411.39208 35.0558676,410.017581 37.2446161,408.783319 C39.4333645,407.549056 41.8185034,406.53922 44.4001041,405.75378 C46.9817049,404.96834 49.7316297,404.575626 52.649961,404.575626 C58.7111106,404.575626 64.2109601,405.613513 69.1496746,407.689319 C74.0883891,409.765124 78.3255181,412.682428 81.8611887,416.441319 C85.3968593,420.200209 88.1187236,424.660319 90.0268633,429.82178 C91.935003,434.983242 92.8890586,440.649544 92.8890586,446.820857 C92.8890586,452.543347 92.0191844,458.013293 90.27941,463.230857 C88.5396356,468.448422 86.0703153,473.076837 82.8713753,477.116242 C79.6724352,481.155647 75.7720317,484.381512 71.1700477,486.793934 C66.5680638,489.206356 61.3488188,490.412549 55.5121562,490.412549 C50.2367112,490.412549 45.3261312,489.59907 40.780269,487.972088 C36.2344068,486.345105 32.502366,483.568056 29.5840347,479.640857 L29.2473059,479.640857 L29.2473059,526.767011 L3.99264208,526.767011 L3.99264208,406.595319 Z M27.2269328,447.494088 C27.2269328,453.665401 28.9947415,458.658479 32.5304121,462.473473 C36.0660828,466.288466 41.0327836,468.195934 47.4306638,468.195934 C53.8285439,468.195934 58.7952448,466.288466 62.3309154,462.473473 C65.866586,458.658479 67.6343948,453.665401 67.6343948,447.494088 C67.6343948,441.322775 65.866586,436.329697 62.3309154,432.514703 C58.7952448,428.69971 53.8285439,426.792242 47.4306638,426.792242 C41.0327836,426.792242 36.0660828,428.69971 32.5304121,432.514703 C28.9947415,436.329697 27.2269328,441.322775 27.2269328,447.494088 Z M159.056278,478.126088 L158.719549,478.126088 C155.913461,482.50211 152.18142,485.643822 147.523315,487.551319 C142.865209,489.458815 137.954629,490.412549 132.791427,490.412549 C128.975148,490.412549 125.299228,489.87958 121.763557,488.813626 C118.227887,487.747672 115.113176,486.148765 112.419332,484.016857 C109.725488,481.884949 107.592893,479.248155 106.021484,476.106396 C104.450075,472.964636 103.664382,469.318006 103.664382,465.166396 C103.664382,460.453757 104.534256,456.470514 106.27403,453.216549 C108.013805,449.962584 110.370883,447.269688 113.345336,445.13778 C116.319789,443.005872 119.715105,441.350863 123.531384,440.172703 C127.347663,438.994544 131.304188,438.124963 135.401076,437.563934 C139.497964,437.002906 143.594791,436.666294 147.691679,436.554088 C151.788567,436.441882 155.576729,436.38578 159.056278,436.38578 C159.056278,431.897553 157.456832,428.335075 154.257892,425.698242 C151.058951,423.061408 147.27079,421.743011 142.893293,421.743011 C138.740283,421.743011 134.952121,422.612592 131.528694,424.35178 C128.105267,426.090968 125.046677,428.475304 122.352833,431.504857 L108.883679,417.703626 C113.597906,413.327604 119.097756,410.045637 125.383393,407.857626 C131.669029,405.669615 138.179055,404.575626 144.913666,404.575626 C152.321738,404.575626 158.410857,405.501309 163.181206,407.352703 C167.951555,409.204097 171.767777,411.925044 174.629987,415.515626 C177.492197,419.106208 179.484489,423.510216 180.606924,428.72778 C181.729359,433.945345 182.290568,439.97631 182.290568,446.820857 L182.290568,488.392857 L159.056278,488.392857 L159.056278,478.126088 Z M152.826794,452.543319 C150.918654,452.543319 148.533515,452.627472 145.671306,452.79578 C142.809096,452.964089 140.059172,453.440956 137.421449,454.226396 C134.783727,455.011835 132.53889,456.189977 130.686872,457.760857 C128.834854,459.331737 127.908859,461.519715 127.908859,464.324857 C127.908859,467.354411 129.19964,469.598491 131.781241,471.057165 C134.362842,472.515839 137.056645,473.245165 139.862733,473.245165 C142.33209,473.245165 144.717229,472.908553 147.018221,472.235319 C149.319213,471.562085 151.367627,470.60835 153.163523,469.374088 C154.959419,468.139825 156.390502,466.568969 157.456816,464.661473 C158.523129,462.753976 159.056278,460.509896 159.056278,457.929165 L159.056278,452.543319 L152.826794,452.543319 Z M198.116824,406.595319 L222.361302,406.595319 L222.361302,417.703626 L222.69803,417.703626 C223.483735,416.132747 224.606153,414.561891 226.065319,412.991011 C227.524485,411.420131 229.264233,410.017581 231.284616,408.783319 C233.304999,407.549056 235.605957,406.53922 238.187557,405.75378 C240.769158,404.96834 243.575204,404.575626 246.605779,404.575626 C253.003659,404.575626 258.166783,405.557411 262.095306,407.521011 C266.023829,409.484611 269.082419,412.205558 271.271167,415.683934 C273.459915,419.16231 274.94712,423.257757 275.732824,427.970396 C276.518529,432.683035 276.911375,437.788317 276.911375,443.286396 L276.911375,488.392857 L251.656711,488.392857 L251.656711,448.335626 C251.656711,445.979307 251.57253,443.53887 251.404165,441.014242 C251.2358,438.489614 250.730711,436.161381 249.888885,434.029473 C249.047059,431.897564 247.756278,430.158402 246.016503,428.811934 C244.276729,427.465466 241.779348,426.792242 238.524286,426.792242 C235.269225,426.792242 232.631542,427.381313 230.611158,428.559473 C228.590775,429.737632 227.04745,431.308488 225.981137,433.272088 C224.914823,435.235687 224.213312,437.451717 223.876581,439.920242 C223.539851,442.388767 223.371488,444.969459 223.371488,447.662396 L223.371488,488.392857 L198.116824,488.392857 L198.116824,406.595319 Z M380.623861,488.392857 L357.38957,488.392857 L357.38957,477.621165 L357.052842,477.621165 C356.04265,479.079839 354.723809,480.566542 353.096278,482.081319 C351.468747,483.596095 349.560636,484.970595 347.371887,486.204857 C345.183139,487.43912 342.769939,488.448956 340.132217,489.234396 C337.494494,490.019835 334.77263,490.412549 331.966542,490.412549 C325.905393,490.412549 320.405543,489.374662 315.466829,487.298857 C310.528114,485.223052 306.290985,482.305748 302.755315,478.546857 C299.219644,474.787967 296.49778,470.327857 294.58964,465.166396 C292.6815,460.004934 291.727445,454.338632 291.727445,448.167319 C291.727445,442.444829 292.597319,436.974883 294.337093,431.757319 C296.076868,426.539754 298.546188,421.911339 301.745128,417.871934 C304.944068,413.832529 308.844472,410.606664 313.446456,408.194242 C318.048439,405.781819 323.267684,404.575626 329.104347,404.575626 C334.379792,404.575626 339.290372,405.389105 343.836234,407.016088 C348.382096,408.64307 352.114137,411.42012 355.032469,415.347319 L355.369197,415.347319 L355.369197,361.152242 L380.623861,361.152242 L380.623861,488.392857 Z M357.38957,447.494088 C357.38957,441.322775 355.621762,436.329697 352.086091,432.514703 C348.55042,428.69971 343.58372,426.792242 337.185839,426.792242 C330.787959,426.792242 325.821258,428.69971 322.285588,432.514703 C318.749917,436.329697 316.982108,441.322775 316.982108,447.494088 C316.982108,453.665401 318.749917,458.658479 322.285588,462.473473 C325.821258,466.288466 330.787959,468.195934 337.185839,468.195934 C343.58372,468.195934 348.55042,466.288466 352.086091,462.473473 C355.621762,458.658479 357.38957,453.665401 357.38957,447.494088 Z M452.178742,478.126088 L451.842013,478.126088 C449.035925,482.50211 445.303884,485.643822 440.645779,487.551319 C435.987673,489.458815 431.077093,490.412549 425.913892,490.412549 C422.097612,490.412549 418.421692,489.87958 414.886022,488.813626 C411.350351,487.747672 408.23564,486.148765 405.541796,484.016857 C402.847952,481.884949 400.715357,479.248155 399.143948,476.106396 C397.572539,472.964636 396.786846,469.318006 396.786846,465.166396 C396.786846,460.453757 397.65672,456.470514 399.396495,453.216549 C401.136269,449.962584 403.493347,447.269688 406.4678,445.13778 C409.442253,443.005872 412.837569,441.350863 416.653848,440.172703 C420.470128,438.994544 424.426652,438.124963 428.52354,437.563934 C432.620428,437.002906 436.717255,436.666294 440.814143,436.554088 C444.911031,436.441882 448.699193,436.38578 452.178742,436.38578 C452.178742,431.897553 450.579296,428.335075 447.380356,425.698242 C444.181416,423.061408 440.393254,421.743011 436.015757,421.743011 C431.862747,421.743011 428.074585,422.612592 424.651158,424.35178 C421.227731,426.090968 418.169141,428.475304 415.475297,431.504857 L402.006143,417.703626 C406.720371,413.327604 412.22022,410.045637 418.505857,407.857626 C424.791493,405.669615 431.301519,404.575626 438.03613,404.575626 C445.444202,404.575626 451.533321,405.501309 456.30367,407.352703 C461.07402,409.204097 464.890242,411.925044 467.752451,415.515626 C470.614661,419.106208 472.606953,423.510216 473.729388,428.72778 C474.851823,433.945345 475.413033,439.97631 475.413033,446.820857 L475.413033,488.392857 L452.178742,488.392857 L452.178742,478.126088 Z M445.949258,452.543319 C444.041118,452.543319 441.65598,452.627472 438.79377,452.79578 C435.931561,452.964089 433.181636,453.440956 430.543913,454.226396 C427.906191,455.011835 425.661354,456.189977 423.809336,457.760857 C421.957318,459.331737 421.031323,461.519715 421.031323,464.324857 C421.031323,467.354411 422.322104,469.598491 424.903705,471.057165 C427.485306,472.515839 430.17911,473.245165 432.985197,473.245165 C435.454555,473.245165 437.839693,472.908553 440.140685,472.235319 C442.441677,471.562085 444.490091,470.60835 446.285987,469.374088 C448.081883,468.139825 449.512966,466.568969 450.57928,464.661473 C451.645593,462.753976 452.178742,460.509896 452.178742,457.929165 L452.178742,452.543319 L445.949258,452.543319 Z" id="panda-copy" fill="#000000"></path>
                <path d="M69.1737267,528.077407 L76.0526161,509.467385 L79.9009458,509.467385 L68.6445813,537.839253 C67.9711203,539.570426 67.113272,540.948933 66.0710108,541.974813 C65.0287497,543.000694 63.5295195,543.513626 61.5732755,543.513626 C61.0922319,543.513626 60.6031782,543.497597 60.1060998,543.465538 C59.6090214,543.43348 59.1199677,543.337305 58.6389241,543.177011 L58.9756529,540.099385 C59.649114,540.452031 60.4508413,540.628352 61.380859,540.628352 C62.5032941,540.628352 63.3851942,540.27571 64.0265857,539.570418 C64.6679772,538.865125 65.2291863,537.871318 65.7102299,536.588967 L67.3457701,532.261055 L58.1097787,509.467385 L62.1024208,509.467385 L69.1737267,528.077407 Z M103.279549,520.719956 C103.279549,519.469664 103.079117,518.299537 102.678247,517.209538 C102.277378,516.11954 101.708151,515.173821 100.970551,514.372352 C100.232951,513.570882 99.3430334,512.937731 98.3007722,512.472879 C97.2585111,512.008027 96.0799719,511.775604 94.7651193,511.775604 C93.4502667,511.775604 92.2717276,512.008027 91.2294664,512.472879 C90.1872052,512.937731 89.3053051,513.570882 88.5837397,514.372352 C87.8621743,515.173821 87.3009651,516.11954 86.9000954,517.209538 C86.4992258,518.299537 86.2987939,519.469664 86.2987939,520.719956 C86.2987939,521.970248 86.4992258,523.140376 86.9000954,524.230374 C87.3009651,525.320372 87.8621743,526.266091 88.5837397,527.06756 C89.3053051,527.86903 90.1872052,528.502181 91.2294664,528.967033 C92.2717276,529.431885 93.4502667,529.664308 94.7651193,529.664308 C96.0799719,529.664308 97.2585111,529.431885 98.3007722,528.967033 C99.3430334,528.502181 100.232951,527.86903 100.970551,527.06756 C101.708151,526.266091 102.277378,525.320372 102.678247,524.230374 C103.079117,523.140376 103.279549,521.970248 103.279549,520.719956 Z M106.743046,520.719956 C106.743046,522.419071 106.446406,523.989927 105.853119,525.432571 C105.259832,526.875216 104.434053,528.125489 103.375757,529.183429 C102.317461,530.241368 101.058749,531.066869 99.5995835,531.659956 C98.1404179,532.253043 96.5289459,532.549582 94.7651193,532.549582 C93.0333623,532.549582 91.4379249,532.253043 89.9787592,531.659956 C88.5195936,531.066869 87.2608816,530.241368 86.2025857,529.183429 C85.1442897,528.125489 84.3185106,526.875216 83.7252234,525.432571 C83.1319363,523.989927 82.8352972,522.419071 82.8352972,520.719956 C82.8352972,519.020841 83.1319363,517.449985 83.7252234,516.007341 C84.3185106,514.564696 85.1442897,513.314423 86.2025857,512.256484 C87.2608816,511.198544 88.5195936,510.373043 89.9787592,509.779956 C91.4379249,509.186869 93.0333623,508.89033 94.7651193,508.89033 C96.5289459,508.89033 98.1404179,509.186869 99.5995835,509.779956 C101.058749,510.373043 102.317461,511.198544 103.375757,512.256484 C104.434053,513.314423 105.259832,514.564696 105.853119,516.007341 C106.446406,517.449985 106.743046,519.020841 106.743046,520.719956 Z M128.774733,531.972527 C128.710594,531.363411 128.670508,530.762318 128.654473,530.169231 C128.638438,529.576144 128.630421,528.975051 128.630421,528.365934 L128.534213,528.365934 C128.181447,528.975051 127.73248,529.536071 127.187297,530.049011 C126.642114,530.561951 126.032802,531.002753 125.359341,531.371429 C124.685879,531.740104 123.972342,532.028629 123.218707,532.237011 C122.465072,532.445393 121.719466,532.549582 120.981866,532.549582 C118.095604,532.549582 115.963009,531.788198 114.584017,530.265407 C113.205026,528.742615 112.51554,526.570666 112.51554,523.749495 L112.51554,509.467385 L115.690412,509.467385 L115.690412,521.922154 C115.690412,523.172446 115.786619,524.278457 115.979037,525.24022 C116.171454,526.201983 116.500163,527.011455 116.965171,527.668659 C117.43018,528.325864 118.055528,528.822768 118.841232,529.159385 C119.626937,529.496002 120.613061,529.664308 121.799636,529.664308 C121.959983,529.664308 122.408951,529.600191 123.146551,529.471956 C123.884151,529.343721 124.661827,528.99108 125.479601,528.414022 C126.297375,527.836964 127.026947,526.97139 127.668338,525.817275 C128.30973,524.663159 128.630421,523.060245 128.630421,521.008484 L128.630421,509.467385 L131.805293,509.467385 L131.805293,527.019473 C131.805293,527.628589 131.829345,528.397988 131.877449,529.327692 C131.925553,530.257397 131.981674,531.138999 132.045813,531.972527 L128.774733,531.972527 Z M139.598161,516.48822 C139.598161,515.494398 139.574109,514.484562 139.526004,513.458681 C139.4779,512.432801 139.437814,511.102382 139.405744,509.467385 L142.532512,509.467385 L142.532512,513.651033 L142.62872,513.651033 C142.853207,513.041916 143.173898,512.456853 143.590803,511.895824 C144.007707,511.334796 144.512795,510.829878 145.106082,510.381055 C145.69937,509.932232 146.388855,509.571576 147.17456,509.299077 C147.960264,509.026577 148.850182,508.89033 149.844338,508.89033 C150.742286,508.89033 151.527979,508.986505 152.20144,509.178857 L151.576087,512.304571 C151.159182,512.144278 150.54987,512.064132 149.74813,512.064132 C148.529486,512.064132 147.487241,512.296554 146.621362,512.761407 C145.755484,513.226259 145.033929,513.819337 144.456677,514.540659 C143.879424,515.261982 143.454509,516.039395 143.181918,516.872923 C142.909326,517.706451 142.773033,518.507908 142.773033,519.277319 L142.773033,531.972527 L139.598161,531.972527 L139.598161,516.48822 Z M189.145406,520.719956 C189.145406,519.469664 188.944974,518.299537 188.544104,517.209538 C188.143234,516.11954 187.574008,515.173821 186.836408,514.372352 C186.098808,513.570882 185.20889,512.937731 184.166629,512.472879 C183.124368,512.008027 181.945829,511.775604 180.630976,511.775604 C179.316124,511.775604 178.113533,512.008027 177.023167,512.472879 C175.932801,512.937731 174.986763,513.570882 174.185024,514.372352 C173.383284,515.173821 172.757937,516.11954 172.308963,517.209538 C171.859989,518.299537 171.635505,519.469664 171.635505,520.719956 C171.635505,521.970248 171.859989,523.140376 172.308963,524.230374 C172.757937,525.320372 173.383284,526.266091 174.185024,527.06756 C174.986763,527.86903 175.932801,528.502181 177.023167,528.967033 C178.113533,529.431885 179.316124,529.664308 180.630976,529.664308 C181.945829,529.664308 183.124368,529.431885 184.166629,528.967033 C185.20889,528.502181 186.098808,527.86903 186.836408,527.06756 C187.574008,526.266091 188.143234,525.320372 188.544104,524.230374 C188.944974,523.140376 189.145406,521.970248 189.145406,520.719956 Z M168.604946,495.618066 L171.779818,495.618066 L171.779818,513.218242 L171.876026,513.218242 C172.389139,512.448831 172.998452,511.791636 173.703983,511.246637 C174.409513,510.701638 175.147102,510.252822 175.916772,509.900176 C176.686442,509.547529 177.480152,509.291063 178.297926,509.130769 C179.1157,508.970475 179.893376,508.89033 180.630976,508.89033 C182.394803,508.89033 184.006275,509.186869 185.46544,509.779956 C186.924606,510.373043 188.183318,511.198544 189.241614,512.256484 C190.29991,513.314423 191.125689,514.564696 191.718976,516.007341 C192.312263,517.449985 192.608902,519.020841 192.608902,520.719956 C192.608902,522.419071 192.312263,523.989927 191.718976,525.432571 C191.125689,526.875216 190.29991,528.125489 189.241614,529.183429 C188.183318,530.241368 186.924606,531.066869 185.46544,531.659956 C184.006275,532.253043 182.394803,532.549582 180.630976,532.549582 C179.893376,532.549582 179.1157,532.469437 178.297926,532.309143 C177.480152,532.148849 176.686442,531.892383 175.916772,531.539736 C175.147102,531.18709 174.409513,530.738274 173.703983,530.193275 C172.998452,529.648276 172.389139,528.991081 171.876026,528.22167 L171.779818,528.22167 L171.779818,531.972527 L168.604946,531.972527 L168.604946,495.618066 Z M217.286317,520.719956 C217.286317,519.469664 217.085885,518.299537 216.685015,517.209538 C216.284146,516.11954 215.714919,515.173821 214.977319,514.372352 C214.239719,513.570882 213.349801,512.937731 212.30754,512.472879 C211.265279,512.008027 210.08674,511.775604 208.771887,511.775604 C207.457035,511.775604 206.278495,512.008027 205.236234,512.472879 C204.193973,512.937731 203.312073,513.570882 202.590508,514.372352 C201.868942,515.173821 201.307733,516.11954 200.906863,517.209538 C200.505994,518.299537 200.305562,519.469664 200.305562,520.719956 C200.305562,521.970248 200.505994,523.140376 200.906863,524.230374 C201.307733,525.320372 201.868942,526.266091 202.590508,527.06756 C203.312073,527.86903 204.193973,528.502181 205.236234,528.967033 C206.278495,529.431885 207.457035,529.664308 208.771887,529.664308 C210.08674,529.664308 211.265279,529.431885 212.30754,528.967033 C213.349801,528.502181 214.239719,527.86903 214.977319,527.06756 C215.714919,526.266091 216.284146,525.320372 216.685015,524.230374 C217.085885,523.140376 217.286317,521.970248 217.286317,520.719956 Z M220.749813,520.719956 C220.749813,522.419071 220.453174,523.989927 219.859887,525.432571 C219.2666,526.875216 218.440821,528.125489 217.382525,529.183429 C216.324229,530.241368 215.065517,531.066869 213.606351,531.659956 C212.147186,532.253043 210.535714,532.549582 208.771887,532.549582 C207.04013,532.549582 205.444693,532.253043 203.985527,531.659956 C202.526361,531.066869 201.26765,530.241368 200.209354,529.183429 C199.151058,528.125489 198.325278,526.875216 197.731991,525.432571 C197.138704,523.989927 196.842065,522.419071 196.842065,520.719956 C196.842065,519.020841 197.138704,517.449985 197.731991,516.007341 C198.325278,514.564696 199.151058,513.314423 200.209354,512.256484 C201.26765,511.198544 202.526361,510.373043 203.985527,509.779956 C205.444693,509.186869 207.04013,508.89033 208.771887,508.89033 C210.535714,508.89033 212.147186,509.186869 213.606351,509.779956 C215.065517,510.373043 216.324229,511.198544 217.382525,512.256484 C218.440821,513.314423 219.2666,514.564696 219.859887,516.007341 C220.453174,517.449985 220.749813,519.020841 220.749813,520.719956 Z M245.812061,520.719956 C245.812061,519.469664 245.611629,518.299537 245.210759,517.209538 C244.80989,516.11954 244.240663,515.173821 243.503063,514.372352 C242.765463,513.570882 241.875545,512.937731 240.833284,512.472879 C239.791023,512.008027 238.612484,511.775604 237.297631,511.775604 C235.982779,511.775604 234.804239,512.008027 233.761978,512.472879 C232.719717,512.937731 231.837817,513.570882 231.116252,514.372352 C230.394686,515.173821 229.833477,516.11954 229.432607,517.209538 C229.031738,518.299537 228.831306,519.469664 228.831306,520.719956 C228.831306,521.970248 229.031738,523.140376 229.432607,524.230374 C229.833477,525.320372 230.394686,526.266091 231.116252,527.06756 C231.837817,527.86903 232.719717,528.502181 233.761978,528.967033 C234.804239,529.431885 235.982779,529.664308 237.297631,529.664308 C238.612484,529.664308 239.791023,529.431885 240.833284,528.967033 C241.875545,528.502181 242.765463,527.86903 243.503063,527.06756 C244.240663,526.266091 244.80989,525.320372 245.210759,524.230374 C245.611629,523.140376 245.812061,521.970248 245.812061,520.719956 Z M249.275557,520.719956 C249.275557,522.419071 248.978918,523.989927 248.385631,525.432571 C247.792344,526.875216 246.966565,528.125489 245.908269,529.183429 C244.849973,530.241368 243.591261,531.066869 242.132095,531.659956 C240.67293,532.253043 239.061458,532.549582 237.297631,532.549582 C235.565874,532.549582 233.970437,532.253043 232.511271,531.659956 C231.052106,531.066869 229.793394,530.241368 228.735098,529.183429 C227.676802,528.125489 226.851022,526.875216 226.257735,525.432571 C225.664448,523.989927 225.367809,522.419071 225.367809,520.719956 C225.367809,519.020841 225.664448,517.449985 226.257735,516.007341 C226.851022,514.564696 227.676802,513.314423 228.735098,512.256484 C229.793394,511.198544 231.052106,510.373043 232.511271,509.779956 C233.970437,509.186869 235.565874,508.89033 237.297631,508.89033 C239.061458,508.89033 240.67293,509.186869 242.132095,509.779956 C243.591261,510.373043 244.849973,511.198544 245.908269,512.256484 C246.966565,513.314423 247.792344,514.564696 248.385631,516.007341 C248.978918,517.449985 249.275557,519.020841 249.275557,520.719956 Z M266.689249,512.352659 L260.195193,512.352659 L260.195193,525.624923 C260.195193,526.458451 260.275366,527.13969 260.435714,527.668659 C260.596062,528.197629 260.820545,528.606372 261.109171,528.894901 C261.397798,529.18343 261.74254,529.383794 262.14341,529.496 C262.54428,529.608206 262.98523,529.664308 263.466273,529.664308 C264.011456,529.664308 264.572665,529.584162 265.149918,529.423868 C265.72717,529.263574 266.25631,529.055195 266.737354,528.798725 L266.881666,531.732088 C265.695092,532.277087 264.268017,532.549582 262.600399,532.549582 C261.991077,532.549582 261.357713,532.469437 260.700286,532.309143 C260.04286,532.148849 259.441565,531.844295 258.896382,531.395473 C258.351199,530.94665 257.902232,530.337542 257.549466,529.568132 C257.196701,528.798721 257.020321,527.788885 257.020321,526.538593 L257.020321,512.352659 L252.258013,512.352659 L252.258013,509.467385 L257.020321,509.467385 L257.020321,503.11978 L260.195193,503.11978 L260.195193,509.467385 L266.689249,509.467385 L266.689249,512.352659 Z M287.422126,514.757055 C286.876943,513.923527 286.115302,513.218245 285.13718,512.641187 C284.159058,512.064129 283.044657,511.775604 281.793944,511.775604 C280.479091,511.743546 279.300552,511.951924 278.258291,512.400747 C277.216029,512.84957 276.326112,513.474707 275.588512,514.276176 C274.850912,515.077645 274.289703,516.031379 273.904868,517.137407 C273.520033,518.243434 273.327618,519.437605 273.327618,520.719956 C273.327618,522.002307 273.520033,523.196478 273.904868,524.302505 C274.289703,525.408533 274.850912,526.362267 275.588512,527.163736 C276.326112,527.965205 277.216029,528.590342 278.258291,529.039165 C279.300552,529.487988 280.479091,529.696366 281.793944,529.664308 C283.044657,529.664308 284.159058,529.375783 285.13718,528.798725 C286.115302,528.221667 286.876943,527.516385 287.422126,526.682857 L290.019748,528.654462 C288.897313,529.968871 287.630584,530.938634 286.219523,531.56378 C284.808461,532.188926 283.333283,532.517524 281.793944,532.549582 C279.965978,532.581641 278.31442,532.301131 276.839219,531.708044 C275.364019,531.114957 274.105307,530.289456 273.063046,529.231516 C272.020784,528.173577 271.227074,526.915289 270.681892,525.456615 C270.136709,523.997941 269.864121,522.419071 269.864121,520.719956 C269.864121,519.020841 270.136709,517.441971 270.681892,515.983297 C271.227074,514.524623 272.020784,513.266335 273.063046,512.208396 C274.105307,511.150456 275.364019,510.324955 276.839219,509.731868 C278.31442,509.138781 279.965978,508.858271 281.793944,508.89033 C283.333283,508.922388 284.808461,509.250986 286.219523,509.876132 C287.630584,510.501278 288.897313,511.471041 290.019748,512.785451 L287.422126,514.757055 Z M307.000503,520.768044 C306.198764,520.768044 305.196605,520.808117 303.993996,520.888264 C302.791387,520.968411 301.636899,521.16076 300.530499,521.465319 C299.424099,521.769877 298.47806,522.242737 297.692356,522.883912 C296.906651,523.525087 296.513805,524.40669 296.513805,525.528747 C296.513805,526.266099 296.666133,526.89925 296.970794,527.42822 C297.275455,527.957189 297.684336,528.389976 298.197449,528.726593 C298.710562,529.06321 299.279789,529.303648 299.905145,529.447912 C300.530502,529.592177 301.163867,529.664308 301.805258,529.664308 C302.959763,529.664308 303.961922,529.471958 304.811766,529.087253 C305.661609,528.702548 306.375147,528.1816 306.952399,527.524396 C307.529651,526.867191 307.954567,526.097792 308.227158,525.216176 C308.49975,524.33456 308.636043,523.396855 308.636043,522.403033 L308.636043,520.768044 L307.000503,520.768044 Z M308.636043,518.171297 L308.636043,517.594242 C308.636043,513.715131 306.711898,511.775604 302.863549,511.775604 C300.233844,511.775604 297.940903,512.657207 295.984659,514.42044 L294.060495,512.160308 C296.177087,509.980311 299.351927,508.89033 303.585111,508.89033 C304.675476,508.89033 305.725739,509.050621 306.735931,509.371209 C307.746122,509.691796 308.620005,510.180685 309.357605,510.83789 C310.095205,511.495095 310.688484,512.320596 311.137458,513.314418 C311.586432,514.308239 311.810915,515.494396 311.810915,516.872923 L311.810915,526.923297 C311.810915,527.788883 311.851002,528.69453 311.931176,529.640264 C312.01135,530.585997 312.09954,531.363411 312.195748,531.972527 L309.117085,531.972527 C309.020876,531.427528 308.94872,530.83445 308.900616,530.193275 C308.852512,529.552099 308.82846,528.926963 308.82846,528.317846 L308.732252,528.317846 C307.802234,529.824608 306.703868,530.906575 305.437119,531.56378 C304.170371,532.220985 302.623037,532.549582 300.795072,532.549582 C299.800915,532.549582 298.838842,532.413335 297.908824,532.140835 C296.978807,531.868336 296.153027,531.451578 295.431462,530.890549 C294.709897,530.329521 294.132653,529.640268 293.699714,528.822769 C293.266774,528.005271 293.050308,527.051537 293.050308,525.961538 C293.050308,524.134189 293.523327,522.69958 294.46938,521.65767 C295.415432,520.61576 296.601989,519.838347 298.029085,519.325407 C299.456181,518.812466 300.979463,518.491883 302.598976,518.363648 C304.21849,518.235413 305.701685,518.171297 307.048607,518.171297 L308.636043,518.171297 Z M319.170846,514.468527 C319.170846,513.634999 319.146794,512.801484 319.09869,511.967956 C319.050585,511.134428 318.994465,510.300913 318.930325,509.467385 L322.345718,509.467385 L322.345718,512.881626 L322.441926,512.881626 C323.211596,511.567217 324.277893,510.57341 325.64085,509.900176 C327.003807,509.226942 328.358726,508.89033 329.705649,508.89033 C330.314971,508.89033 330.96437,508.954446 331.653866,509.082681 C332.343361,509.210916 333.008795,509.443339 333.650187,509.779956 C334.291578,510.116573 334.892874,510.589433 335.454091,511.198549 C336.015309,511.807666 336.488328,512.593094 336.873163,513.554857 C337.514554,512.112213 338.532748,510.974143 339.927774,510.140615 C341.322801,509.307087 342.773927,508.89033 344.281197,508.89033 C347.167459,508.89033 349.300054,509.651714 350.679046,511.174505 C352.058037,512.697297 352.747523,514.869246 352.747523,517.690418 L352.747523,531.972527 L349.572651,531.972527 L349.572651,518.844527 C349.572651,516.568355 349.171787,514.821178 348.370048,513.602945 C347.568308,512.384712 346.077096,511.775604 343.896364,511.775604 C342.70979,511.775604 341.715648,512.008027 340.913909,512.472879 C340.11217,512.937731 339.46277,513.554853 338.965692,514.324264 C338.468614,515.093674 338.107836,515.967263 337.883349,516.945055 C337.658862,517.922847 337.54662,518.940698 337.54662,519.998637 L337.54662,531.972527 L334.371748,531.972527 L334.371748,518.844527 C334.371748,516.568355 333.970885,514.821178 333.169145,513.602945 C332.367406,512.384712 330.876193,511.775604 328.695462,511.775604 C328.503045,511.775604 328.062095,511.839721 327.372599,511.967956 C326.683103,512.096191 325.969566,512.448832 325.231965,513.02589 C324.494365,513.602948 323.828931,514.468522 323.235644,515.622637 C322.642357,516.776753 322.345718,518.379667 322.345718,520.431429 L322.345718,531.972527 L319.170846,531.972527 L319.170846,514.468527 Z M380.696017,520.719956 C380.696017,519.469664 380.495586,518.299537 380.094716,517.209538 C379.693846,516.11954 379.12462,515.173821 378.38702,514.372352 C377.649419,513.570882 376.759502,512.937731 375.717241,512.472879 C374.67498,512.008027 373.49644,511.775604 372.181588,511.775604 C370.866735,511.775604 369.664144,512.008027 368.573779,512.472879 C367.483413,512.937731 366.537375,513.570882 365.735636,514.372352 C364.933896,515.173821 364.308549,516.11954 363.859575,517.209538 C363.410601,518.299537 363.186117,519.469664 363.186117,520.719956 C363.186117,521.970248 363.410601,523.140376 363.859575,524.230374 C364.308549,525.320372 364.933896,526.266091 365.735636,527.06756 C366.537375,527.86903 367.483413,528.502181 368.573779,528.967033 C369.664144,529.431885 370.866735,529.664308 372.181588,529.664308 C373.49644,529.664308 374.67498,529.431885 375.717241,528.967033 C376.759502,528.502181 377.649419,527.86903 378.38702,527.06756 C379.12462,526.266091 379.693846,525.320372 380.094716,524.230374 C380.495586,523.140376 380.696017,521.970248 380.696017,520.719956 Z M360.155557,509.467385 L363.33043,509.467385 L363.33043,513.218242 L363.426638,513.218242 C363.939751,512.448831 364.549064,511.791636 365.254594,511.246637 C365.960125,510.701638 366.697714,510.252822 367.467384,509.900176 C368.237054,509.547529 369.030764,509.291063 369.848538,509.130769 C370.666312,508.970475 371.443988,508.89033 372.181588,508.89033 C373.945414,508.89033 375.556886,509.186869 377.016052,509.779956 C378.475218,510.373043 379.73393,511.198544 380.792226,512.256484 C381.850522,513.314423 382.676301,514.564696 383.269588,516.007341 C383.862875,517.449985 384.159514,519.020841 384.159514,520.719956 C384.159514,522.419071 383.862875,523.989927 383.269588,525.432571 C382.676301,526.875216 381.850522,528.125489 380.792226,529.183429 C379.73393,530.241368 378.475218,531.066869 377.016052,531.659956 C375.556886,532.253043 373.945414,532.549582 372.181588,532.549582 C371.443988,532.549582 370.666312,532.469437 369.848538,532.309143 C369.030764,532.148849 368.237054,531.892383 367.467384,531.539736 C366.697714,531.18709 365.960125,530.738274 365.254594,530.193275 C364.549064,529.648276 363.939751,528.991081 363.426638,528.22167 L363.33043,528.22167 L363.33043,545.821846 L360.155557,545.821846 L360.155557,509.467385 Z M414.849944,514.805143 C414.3689,513.875439 413.727518,513.138098 412.925779,512.593099 C412.124039,512.0481 411.145932,511.775604 409.991427,511.775604 C409.446245,511.775604 408.893053,511.839721 408.331835,511.967956 C407.770618,512.096191 407.265529,512.296555 406.816555,512.569055 C406.367581,512.841554 406.006804,513.186181 405.734213,513.602945 C405.461621,514.019709 405.325328,514.532642 405.325328,515.141758 C405.325328,516.199698 405.694122,516.969096 406.431722,517.449978 C407.169323,517.93086 408.275706,518.347617 409.750907,518.700264 L412.973883,519.46967 C414.545292,519.822317 415.852108,520.535614 416.894369,521.609582 C417.93663,522.683551 418.457753,524.021985 418.457753,525.624923 C418.457753,526.843156 418.209217,527.893065 417.712139,528.774681 C417.21506,529.656297 416.557644,530.377609 415.73987,530.938637 C414.922096,531.499666 413.984075,531.908409 412.925779,532.164879 C411.867483,532.421349 410.793168,532.549582 409.702803,532.549582 C407.971046,532.549582 406.359574,532.220985 404.868338,531.56378 C403.377103,530.906575 402.102357,529.776521 401.044061,528.173582 L403.785996,526.298154 C404.427387,527.324034 405.237132,528.141521 406.215254,528.750637 C407.193376,529.359754 408.35588,529.664308 409.702803,529.664308 C410.344194,529.664308 410.985576,529.592177 411.626967,529.447912 C412.268359,529.303648 412.837585,529.07924 413.334664,528.774681 C413.831742,528.470123 414.232606,528.077409 414.537267,527.596527 C414.841928,527.115646 414.994256,526.554626 414.994256,525.913451 C414.994256,524.791394 414.577358,523.981922 413.743549,523.485011 C412.90974,522.9881 411.899563,522.595386 410.712989,522.306857 L407.634325,521.585538 C407.24949,521.489362 406.728368,521.329071 406.070941,521.104659 C405.413515,520.880248 404.772133,520.543636 404.146777,520.094813 C403.52142,519.64599 402.984263,519.060927 402.535289,518.339604 C402.086314,517.618282 401.861831,516.728665 401.861831,515.670725 C401.861831,514.51661 402.094332,513.506774 402.559341,512.641187 C403.024349,511.7756 403.649697,511.070318 404.435401,510.525319 C405.221106,509.98032 406.111023,509.571576 407.10518,509.299077 C408.099337,509.026577 409.125548,508.89033 410.183844,508.89033 C411.755253,508.89033 413.214397,509.194883 414.561319,509.804 C415.908241,510.413117 416.950487,511.455011 417.688087,512.929714 L414.849944,514.805143 Z M439.67167,531.972527 C439.607531,531.363411 439.567445,530.762318 439.55141,530.169231 C439.535375,529.576144 439.527358,528.975051 439.527358,528.365934 L439.43115,528.365934 C439.078384,528.975051 438.629417,529.536071 438.084234,530.049011 C437.539052,530.561951 436.929739,531.002753 436.256278,531.371429 C435.582817,531.740104 434.869279,532.028629 434.115644,532.237011 C433.362009,532.445393 432.616403,532.549582 431.878803,532.549582 C428.992541,532.549582 426.859946,531.788198 425.480954,530.265407 C424.101963,528.742615 423.412477,526.570666 423.412477,523.749495 L423.412477,509.467385 L426.587349,509.467385 L426.587349,521.922154 C426.587349,523.172446 426.683557,524.278457 426.875974,525.24022 C427.068391,526.201983 427.3971,527.011455 427.862108,527.668659 C428.327117,528.325864 428.952465,528.822768 429.738169,529.159385 C430.523874,529.496002 431.509998,529.664308 432.696573,529.664308 C432.856921,529.664308 433.305888,529.600191 434.043488,529.471956 C434.781088,529.343721 435.558764,528.99108 436.376538,528.414022 C437.194312,527.836964 437.923884,526.97139 438.565275,525.817275 C439.206667,524.663159 439.527358,523.060245 439.527358,521.008484 L439.527358,509.467385 L442.70223,509.467385 L442.70223,527.019473 C442.70223,527.628589 442.726282,528.397988 442.774386,529.327692 C442.82249,530.257397 442.878611,531.138999 442.942751,531.972527 L439.67167,531.972527 Z M450.495098,516.48822 C450.495098,515.494398 450.471046,514.484562 450.422941,513.458681 C450.374837,512.432801 450.334751,511.102382 450.302681,509.467385 L453.429449,509.467385 L453.429449,513.651033 L453.525657,513.651033 C453.750144,513.041916 454.070835,512.456853 454.48774,511.895824 C454.904644,511.334796 455.409732,510.829878 456.00302,510.381055 C456.596307,509.932232 457.285792,509.571576 458.071497,509.299077 C458.857201,509.026577 459.747119,508.89033 460.741275,508.89033 C461.639224,508.89033 462.424916,508.986505 463.098377,509.178857 L462.473024,512.304571 C462.056119,512.144278 461.446807,512.064132 460.645067,512.064132 C459.426423,512.064132 458.384178,512.296554 457.518299,512.761407 C456.652421,513.226259 455.930866,513.819337 455.353614,514.540659 C454.776362,515.261982 454.351446,516.039395 454.078855,516.872923 C453.806263,517.706451 453.66997,518.507908 453.66997,519.277319 L453.66997,531.972527 L450.495098,531.972527 L450.495098,516.48822 Z M476.038386,531.972527 L472.478681,531.972527 L463.338898,509.467385 L467.139124,509.467385 L474.306638,528.414022 L474.402846,528.414022 L481.57036,509.467385 L485.178169,509.467385 L476.038386,531.972527 Z M493.933119,500.81156 C493.933119,501.484795 493.692601,502.0378 493.211557,502.470593 C492.730514,502.903387 492.201374,503.11978 491.624121,503.11978 C491.046869,503.11978 490.517729,502.903387 490.036685,502.470593 C489.555642,502.0378 489.315124,501.484795 489.315124,500.81156 C489.315124,500.138326 489.555642,499.585321 490.036685,499.152527 C490.517729,498.719734 491.046869,498.503341 491.624121,498.503341 C492.201374,498.503341 492.730514,498.719734 493.211557,499.152527 C493.692601,499.585321 493.933119,500.138326 493.933119,500.81156 Z M493.211557,531.972527 L490.036685,531.972527 L490.036685,509.467385 L493.211557,509.467385 L493.211557,531.972527 Z M510.769562,531.972527 L507.209857,531.972527 L498.070074,509.467385 L501.870299,509.467385 L509.037813,528.414022 L509.134022,528.414022 L516.301536,509.467385 L519.909345,509.467385 L510.769562,531.972527 Z M536.841996,520.768044 C536.040256,520.768044 535.038097,520.808117 533.835488,520.888264 C532.632879,520.968411 531.478392,521.16076 530.371991,521.465319 C529.265591,521.769877 528.319553,522.242737 527.533848,522.883912 C526.748144,523.525087 526.355297,524.40669 526.355297,525.528747 C526.355297,526.266099 526.507625,526.89925 526.812286,527.42822 C527.116947,527.957189 527.525828,528.389976 528.038941,528.726593 C528.552055,529.06321 529.121281,529.303648 529.746638,529.447912 C530.371994,529.592177 531.005359,529.664308 531.646751,529.664308 C532.801255,529.664308 533.803414,529.471958 534.653258,529.087253 C535.503102,528.702548 536.216639,528.1816 536.793892,527.524396 C537.371144,526.867191 537.796059,526.097792 538.068651,525.216176 C538.341242,524.33456 538.477536,523.396855 538.477536,522.403033 L538.477536,520.768044 L536.841996,520.768044 Z M538.477536,518.171297 L538.477536,517.594242 C538.477536,513.715131 536.55339,511.775604 532.705041,511.775604 C530.075336,511.775604 527.782396,512.657207 525.826152,514.42044 L523.901987,512.160308 C526.018579,509.980311 529.193419,508.89033 533.426603,508.89033 C534.516969,508.89033 535.567231,509.050621 536.577423,509.371209 C537.587615,509.691796 538.461497,510.180685 539.199098,510.83789 C539.936698,511.495095 540.529976,512.320596 540.97895,513.314418 C541.427924,514.308239 541.652408,515.494396 541.652408,516.872923 L541.652408,526.923297 C541.652408,527.788883 541.692494,528.69453 541.772668,529.640264 C541.852842,530.585997 541.941032,531.363411 542.037241,531.972527 L538.958577,531.972527 C538.862368,531.427528 538.790213,530.83445 538.742108,530.193275 C538.694004,529.552099 538.669952,528.926963 538.669952,528.317846 L538.573744,528.317846 C537.643726,529.824608 536.54536,530.906575 535.278612,531.56378 C534.011864,532.220985 532.46453,532.549582 530.636564,532.549582 C529.642407,532.549582 528.680334,532.413335 527.750317,532.140835 C526.820299,531.868336 525.99452,531.451578 525.272954,530.890549 C524.551389,530.329521 523.974145,529.640268 523.541206,528.822769 C523.108267,528.005271 522.8918,527.051537 522.8918,525.961538 C522.8918,524.134189 523.36482,522.69958 524.310872,521.65767 C525.256924,520.61576 526.443481,519.838347 527.870577,519.325407 C529.297673,518.812466 530.820955,518.491883 532.440469,518.363648 C534.059982,518.235413 535.543178,518.171297 536.8901,518.171297 L538.477536,518.171297 Z M552.908772,531.972527 L549.7339,531.972527 L549.7339,495.618066 L552.908772,495.618066 L552.908772,531.972527 Z M576.239271,520.431429 C576.239271,521.617603 576.455738,522.731628 576.888677,523.773538 C577.321616,524.815448 577.914894,525.72911 578.668529,526.514549 C579.422164,527.299989 580.304064,527.925126 581.314256,528.389978 C582.324448,528.85483 583.422814,529.087253 584.609388,529.087253 C585.763893,529.087253 586.862259,528.878874 587.904521,528.46211 C588.946782,528.045346 589.868768,527.460282 590.670508,526.706901 C591.472247,525.95352 592.089577,525.047873 592.522516,523.989934 C592.955456,522.931995 593.155887,521.745838 593.123818,520.431429 C593.123818,519.245254 592.931403,518.131229 592.546568,517.089319 C592.161733,516.047409 591.600524,515.133748 590.862924,514.348308 C590.125324,513.562868 589.227389,512.937731 588.169093,512.472879 C587.110797,512.008027 585.924241,511.775604 584.609388,511.775604 C583.422814,511.775604 582.324448,512.008027 581.314256,512.472879 C580.304064,512.937731 579.422164,513.562868 578.668529,514.348308 C577.914894,515.133748 577.321616,516.047409 576.888677,517.089319 C576.455738,518.131229 576.239271,519.245254 576.239271,520.431429 Z M575.662022,536.492791 C576.592039,537.743083 577.802648,538.744905 579.293883,539.498286 C580.785118,540.251667 582.444694,540.628352 584.272659,540.628352 C585.876138,540.628352 587.239075,540.395929 588.36151,539.931077 C589.483945,539.466225 590.389897,538.833074 591.079393,538.031604 C591.768888,537.230135 592.265959,536.29243 592.57062,535.218462 C592.875281,534.144493 593.02761,532.998409 593.02761,531.780176 L593.02761,527.740791 L592.931401,527.740791 C591.905175,529.279612 590.65448,530.369594 589.17928,531.010769 C587.704079,531.651945 586.148728,531.972527 584.51318,531.972527 C582.877632,531.972527 581.346333,531.684003 579.919236,531.106945 C578.49214,530.529887 577.249463,529.736445 576.191167,528.726593 C575.132871,527.716742 574.299075,526.506542 573.689753,525.095956 C573.080431,523.68537 572.775774,522.162602 572.775774,520.527604 C572.775774,518.892607 573.064396,517.369839 573.641649,515.959253 C574.218901,514.548667 575.012611,513.314423 576.022803,512.256484 C577.032994,511.198544 578.235585,510.373043 579.630612,509.779956 C581.025638,509.186869 582.556937,508.89033 584.224555,508.89033 C584.898016,508.89033 585.611554,508.954446 586.365189,509.082681 C587.118824,509.210916 587.872447,509.435324 588.626082,509.755912 C589.379717,510.0765 590.125324,510.517301 590.862924,511.07833 C591.600524,511.639358 592.29001,512.352655 592.931401,513.218242 L593.02761,513.218242 L593.02761,509.467385 L596.202482,509.467385 L596.202482,531.780176 C596.202482,532.998409 596.050153,534.29677 595.745492,535.675297 C595.440831,537.053824 594.847553,538.320126 593.96564,539.474242 C593.083727,540.628357 591.857084,541.590106 590.285675,542.359516 C588.714265,543.128927 586.661843,543.513626 584.128347,543.513626 C581.883477,543.513626 579.879158,543.144956 578.115332,542.407604 C576.351505,541.670253 574.748051,540.532184 573.30492,538.993363 L575.662022,536.492791 Z M619.581085,531.972527 C619.516945,531.363411 619.476859,530.762318 619.460824,530.169231 C619.44479,529.576144 619.436772,528.975051 619.436772,528.365934 L619.340564,528.365934 C618.987799,528.975051 618.538831,529.536071 617.993649,530.049011 C617.448466,530.561951 616.839153,531.002753 616.165692,531.371429 C615.492231,531.740104 614.778694,532.028629 614.025059,532.237011 C613.271424,532.445393 612.525817,532.549582 611.788217,532.549582 C608.901955,532.549582 606.76936,531.788198 605.390369,530.265407 C604.011377,528.742615 603.321892,526.570666 603.321892,523.749495 L603.321892,509.467385 L606.496764,509.467385 L606.496764,521.922154 C606.496764,523.172446 606.592971,524.278457 606.785388,525.24022 C606.977806,526.201983 607.306514,527.011455 607.771523,527.668659 C608.236532,528.325864 608.861879,528.822768 609.647584,529.159385 C610.433288,529.496002 611.419413,529.664308 612.605987,529.664308 C612.766335,529.664308 613.215302,529.600191 613.952902,529.471956 C614.690503,529.343721 615.468178,528.99108 616.285952,528.414022 C617.103726,527.836964 617.833298,526.97139 618.47469,525.817275 C619.116081,524.663159 619.436772,523.060245 619.436772,521.008484 L619.436772,509.467385 L622.611644,509.467385 L622.611644,527.019473 C622.611644,527.628589 622.635696,528.397988 622.6838,529.327692 C622.731905,530.257397 622.788026,531.138999 622.852165,531.972527 L619.581085,531.972527 Z M634.685779,500.81156 C634.685779,501.484795 634.445261,502.0378 633.964217,502.470593 C633.483173,502.903387 632.954033,503.11978 632.376781,503.11978 C631.799529,503.11978 631.270389,502.903387 630.789345,502.470593 C630.308301,502.0378 630.067783,501.484795 630.067783,500.81156 C630.067783,500.138326 630.308301,499.585321 630.789345,499.152527 C631.270389,498.719734 631.799529,498.503341 632.376781,498.503341 C632.954033,498.503341 633.483173,498.719734 633.964217,499.152527 C634.445261,499.585321 634.685779,500.138326 634.685779,500.81156 Z M633.964217,531.972527 L630.789345,531.972527 L630.789345,509.467385 L633.964217,509.467385 L633.964217,531.972527 Z M643.536937,520.719956 C643.536937,521.970248 643.737369,523.140376 644.138239,524.230374 C644.539108,525.320372 645.108335,526.266091 645.845935,527.06756 C646.583535,527.86903 647.473452,528.502181 648.515714,528.967033 C649.557975,529.431885 650.736514,529.664308 652.051367,529.664308 C653.33415,529.664308 654.528723,529.431885 655.635124,528.967033 C656.741524,528.502181 657.69558,527.86903 658.497319,527.06756 C659.299058,526.266091 659.924406,525.320372 660.37338,524.230374 C660.822354,523.140376 661.046837,521.970248 661.046837,520.719956 C661.046837,519.469664 660.822354,518.299537 660.37338,517.209538 C659.924406,516.11954 659.299058,515.173821 658.497319,514.372352 C657.69558,513.570882 656.741524,512.937731 655.635124,512.472879 C654.528723,512.008027 653.33415,511.775604 652.051367,511.775604 C650.736514,511.775604 649.557975,512.008027 648.515714,512.472879 C647.473452,512.937731 646.583535,513.570882 645.845935,514.372352 C645.108335,515.173821 644.539108,516.11954 644.138239,517.209538 C643.737369,518.299537 643.536937,519.469664 643.536937,520.719956 Z M664.077397,531.972527 L660.902525,531.972527 L660.902525,528.22167 L660.806317,528.22167 C660.293204,528.991081 659.683891,529.648276 658.97836,530.193275 C658.272829,530.738274 657.53524,531.18709 656.76557,531.539736 C655.995901,531.892383 655.202191,532.148849 654.384416,532.309143 C653.566642,532.469437 652.788967,532.549582 652.051367,532.549582 C650.28754,532.549582 648.676068,532.253043 647.216902,531.659956 C645.757737,531.066869 644.499025,530.241368 643.440729,529.183429 C642.382433,528.125489 641.556654,526.875216 640.963367,525.432571 C640.370079,523.989927 640.07344,522.419071 640.07344,520.719956 C640.07344,519.020841 640.370079,517.449985 640.963367,516.007341 C641.556654,514.564696 642.382433,513.314423 643.440729,512.256484 C644.499025,511.198544 645.757737,510.373043 647.216902,509.779956 C648.676068,509.186869 650.28754,508.89033 652.051367,508.89033 C652.788967,508.89033 653.566642,508.970475 654.384416,509.130769 C655.202191,509.291063 655.995901,509.547529 656.76557,509.900176 C657.53524,510.252822 658.272829,510.701638 658.97836,511.246637 C659.683891,511.791636 660.293204,512.448831 660.806317,513.218242 L660.902525,513.218242 L660.902525,495.618066 L664.077397,495.618066 L664.077397,531.972527 Z M688.514291,518.988791 C688.514291,516.840854 687.872909,515.101692 686.590126,513.771253 C685.307343,512.440814 683.511474,511.775604 681.202464,511.775604 C680.176238,511.775604 679.182096,511.975969 678.220009,512.376703 C677.257921,512.777438 676.416108,513.314414 675.694542,513.987648 C674.972977,514.660882 674.395733,515.430281 673.962794,516.295868 C673.529855,517.161455 673.313388,518.059087 673.313388,518.988791 L688.514291,518.988791 Z M673.21718,521.585538 C673.313389,522.707595 673.585976,523.765519 674.03495,524.759341 C674.483924,525.753162 675.077202,526.610722 675.814803,527.332044 C676.552403,528.053366 677.402234,528.622401 678.364321,529.039165 C679.326408,529.455929 680.368654,529.664308 681.491089,529.664308 C683.190776,529.664308 684.657937,529.271594 685.892616,528.486154 C687.127295,527.700714 688.065316,526.795067 688.706707,525.769187 L691.160017,527.788879 C689.813095,529.487994 688.3299,530.706209 686.710386,531.44356 C685.090873,532.180912 683.351124,532.549582 681.491089,532.549582 C679.823471,532.549582 678.276137,532.253043 676.849041,531.659956 C675.421945,531.066869 674.195302,530.241368 673.169076,529.183429 C672.14285,528.125489 671.333105,526.875216 670.739818,525.432571 C670.146531,523.989927 669.849892,522.419071 669.849892,520.719956 C669.849892,519.020841 670.138513,517.449985 670.715766,516.007341 C671.293018,514.564696 672.094745,513.314423 673.120972,512.256484 C674.147198,511.198544 675.349789,510.373043 676.728781,509.779956 C678.107773,509.186869 679.598985,508.89033 681.202464,508.89033 C682.902152,508.89033 684.425434,509.194883 685.772356,509.804 C687.119278,510.413117 688.249713,511.222588 689.163696,512.23244 C690.077679,513.242291 690.775182,514.428447 691.256226,515.790945 C691.737269,517.153443 691.977787,518.60408 691.977787,520.142901 L691.977787,521.585538 L673.21718,521.585538 Z" id="your-bootcamp-surviv-copy" fill="#000000"></path>
            </g>
        </g>
    </g>
</svg>